Coordinates
version=1
nRows=16
nColumns=63
inDegrees=yes

Units are S.I. units (second, meters, Newtons, ...)
If the header above contains a line with 'inDegrees', this indicates whether rotational values are in degrees (yes) or radians (no).

endheader
time	pelvis_tilt	pelvis_list	pelvis_rotation	pelvis_tx	pelvis_ty	pelvis_tz	hip_flexion_r	hip_adduction_r	hip_rotation_r	knee_angle_r	knee_angle_r_beta	ankle_angle_r	subtalar_angle_r	mtp_angle_r	hip_flexion_l	hip_adduction_l	hip_rotation_l	knee_angle_l	knee_angle_l_beta	ankle_angle_l	subtalar_angle_l	mtp_angle_l	L5_S1_Flex_Ext	L5_S1_Lat_Bending	L5_S1_axial_rotation	L4_L5_Flex_Ext	L4_L5_Lat_Bending	L4_L5_axial_rotation	L3_L4_Flex_Ext	L3_L4_Lat_Bending	L3_L4_axial_rotation	L2_L3_Flex_Ext	L2_L3_Lat_Bending	L2_L3_axial_rotation	L1_L2_Flex_Ext	L1_L2_Lat_Bending	L1_L2_axial_rotation	L1_T12_Flex_Ext	L1_T12_Lat_Bending	L1_T12_axial_rotation	Abs_r3	Abs_r2	Abs_r1	Abs_t1	Abs_t2	neck_flexion	neck_bending	neck_rotation	arm_flex_r	arm_add_r	arm_rot_r	elbow_flex_r	pro_sup_r	wrist_flex_r	wrist_dev_r	arm_flex_l	arm_add_l	arm_rot_l	elbow_flex_l	pro_sup_l	wrist_flex_l	wrist_dev_l
8.100000	-2.851013	-0.302982	90.392114	0.252461	0.688669	0.747001	4.808409	-3.508965	1.589791	8.748499	0.152690	19.106663	1.488922	0.000000	2.742817	1.088491	-13.296231	6.696002	0.116867	20.261346	13.749955	0.000000	-0.113194	-0.008616	1.663287	-0.210212	-0.011459	1.767242	-0.185966	-0.020949	1.767242	-0.129369	-0.020949	1.455376	-0.105112	-0.017570	1.351421	-0.064679	-0.013346	1.247465	-0.808531	-0.097465	9.250702	0.000000	0.000000	24.225183	-4.773810	0.083147	2.406080	-9.363172	34.451972	47.764386	75.964897	3.087862	17.360146	18.755604	-7.057263	73.187690	36.352709	64.144676	8.879894	-10.960031
8.116667	-2.877389	-0.310151	90.363012	0.252675	0.688759	0.746973	4.709422	-3.530217	1.635760	8.503383	0.148412	19.081970	1.601869	0.000000	2.899551	1.067435	-13.440562	7.003766	0.122239	20.463419	13.908878	0.000000	-0.116450	-0.015221	1.677868	-0.216259	-0.020244	1.782734	-0.191316	-0.037008	1.782734	-0.133091	-0.037008	1.468134	-0.108135	-0.031038	1.363267	-0.066540	-0.023577	1.258401	-0.831791	-0.172180	9.331797	0.000000	0.000000	24.336109	-4.879091	0.076554	2.398437	-9.338824	34.664518	47.690624	74.674122	2.875839	17.245638	18.989747	-7.054606	74.134515	36.196709	63.339660	8.548148	-11.531480
8.133333	-2.932660	-0.321498	90.331475	0.252965	0.688840	0.746945	4.611775	-3.582694	1.599862	8.245131	0.143905	19.094905	1.867436	0.000000	3.077853	1.067746	-13.533107	7.360167	0.128459	20.645848	13.981036	0.000000	-0.120569	-0.026999	1.690800	-0.223908	-0.035908	1.796475	-0.198083	-0.065644	1.796475	-0.137798	-0.065644	1.479450	-0.111960	-0.055056	1.373775	-0.068893	-0.041821	1.268100	-0.861212	-0.305414	9.403722	0.000000	0.000000	24.461088	-4.944906	0.094607	2.450201	-9.318255	35.023429	47.613910	73.152618	2.705219	17.025906	19.199992	-7.095065	75.025723	36.076256	62.567541	8.185230	-12.135886
8.150000	-3.010494	-0.339558	90.288363	0.253329	0.688902	0.746915	4.524786	-3.656801	1.527627	7.984247	0.139351	19.146183	2.228004	0.000000	3.267918	1.084837	-13.601375	7.736718	0.135031	20.795733	13.996495	0.000000	-0.124046	-0.043008	1.705095	-0.230366	-0.057200	1.811664	-0.203795	-0.104569	1.811664	-0.141772	-0.104569	1.491958	-0.115189	-0.087701	1.385390	-0.070880	-0.066619	1.278821	-0.886049	-0.486511	9.483228	0.000000	0.000000	24.580655	-4.993355	0.109097	2.544665	-9.299538	35.458120	47.541235	71.735932	2.613028	16.718130	19.371798	-7.170337	75.815655	36.004038	61.792935	7.839717	-12.669236
8.166667	-3.105956	-0.354420	90.264273	0.253712	0.688967	0.746876	4.431763	-3.752538	1.361734	7.720804	0.134753	19.230150	2.712823	0.000000	3.449479	1.120574	-13.614708	8.105815	0.141473	20.896269	13.954664	0.000000	-0.127541	-0.062134	1.713150	-0.236857	-0.082638	1.820222	-0.209538	-0.151073	1.820222	-0.145767	-0.151073	1.499006	-0.118435	-0.126704	1.391934	-0.072877	-0.096246	1.284863	-0.911015	-0.702874	9.528027	0.000000	0.000000	24.672934	-5.037475	0.140858	2.702546	-9.296321	36.041761	47.459523	70.132672	2.540328	16.384552	19.484945	-7.280487	76.448252	35.984201	60.977344	7.513133	-13.077999
8.183333	-3.213244	-0.367055	90.230357	0.254157	0.689027	0.746834	4.345448	-3.850898	1.249935	7.467411	0.130331	19.320825	3.130467	0.000000	3.621890	1.153914	-13.774773	8.471872	0.147862	20.971477	14.094780	0.000000	-0.130918	-0.084120	1.728754	-0.243128	-0.111880	1.836801	-0.215085	-0.204530	1.836801	-0.149626	-0.204530	1.512660	-0.121571	-0.171538	1.404613	-0.074807	-0.130302	1.296566	-0.935135	-0.951583	9.614812	0.000000	0.000000	24.727801	-5.089583	0.118860	2.865559	-9.284021	36.554651	47.391761	68.919781	2.566243	16.007079	19.567176	-7.395454	76.976429	35.985167	60.284999	7.221506	-13.405880
8.200000	-3.324705	-0.388389	90.194621	0.254611	0.689065	0.746794	4.281289	-3.953606	1.125659	7.234771	0.126271	19.427036	3.564181	0.000000	3.789926	1.192660	-13.941102	8.811685	0.153793	20.999146	14.223538	0.000000	-0.132452	-0.107466	1.748759	-0.245977	-0.142930	1.858057	-0.217606	-0.261293	1.858057	-0.151380	-0.261293	1.530164	-0.122995	-0.219145	1.420867	-0.075683	-0.166465	1.311570	-0.946092	-1.215677	9.726075	0.000000	0.000000	24.758641	-5.149660	0.063545	3.050098	-9.287908	37.068693	47.340482	67.988873	2.635372	15.606406	19.622863	-7.515795	77.411808	36.018130	59.596935	6.977207	-13.588891
8.216667	-3.430821	-0.413107	90.184389	0.255016	0.689085	0.746727	4.220839	-4.053707	0.947895	7.012877	0.122398	19.538471	4.012315	0.000000	3.933839	1.236542	-14.044256	9.093309	0.158708	20.974819	14.298708	0.000000	-0.132467	-0.130709	1.769082	-0.246004	-0.173844	1.879650	-0.217630	-0.317807	1.879650	-0.151396	-0.317807	1.547947	-0.123009	-0.266543	1.437379	-0.075692	-0.202469	1.326812	-0.946197	-1.478612	9.839106	0.000000	0.000000	24.760382	-5.198888	-0.019798	3.233346	-9.308563	37.555002	47.312424	67.275074	2.715316	15.190755	19.654283	-7.630338	77.769585	36.078815	58.939402	6.766377	-13.632328
8.233333	-3.517409	-0.444063	90.177729	0.255383	0.689075	0.746658	4.187097	-4.132250	0.781568	6.835765	0.119307	19.636347	4.393238	0.000000	4.068281	1.262580	-14.196290	9.341599	0.163042	20.934529	14.435515	0.000000	-0.131276	-0.151515	1.798583	-0.243792	-0.201515	1.910995	-0.215673	-0.368394	1.910995	-0.150035	-0.368394	1.573760	-0.121902	-0.308970	1.461349	-0.075011	-0.234697	1.348937	-0.937688	-1.713972	10.003180	0.000000	0.000000	24.760596	-5.250214	-0.114213	3.364086	-9.338513	37.886631	47.340849	66.847241	2.782669	14.817457	19.722861	-7.702923	78.186323	36.092068	58.358339	6.656038	-13.680019
8.250000	-3.589020	-0.478224	90.168029	0.255719	0.689042	0.746569	4.169381	-4.194002	0.640939	6.692047	0.116798	19.708895	4.703637	0.000000	4.173365	1.282876	-14.360425	9.525764	0.166256	20.872763	14.570700	0.000000	-0.129213	-0.170067	1.832238	-0.239962	-0.226189	1.946753	-0.212285	-0.413501	1.946753	-0.147678	-0.413501	1.603208	-0.119988	-0.346801	1.488693	-0.073833	-0.263434	1.374178	-0.922959	-1.923834	10.190358	0.000000	0.000000	24.760993	-5.308500	-0.201451	3.435034	-9.345630	38.031946	47.389824	66.706993	2.864181	14.479464	19.790274	-7.748649	78.540782	36.097164	57.950823	6.571712	-13.679831
8.266667	-3.631388	-0.513818	90.166888	0.255994	0.688984	0.746489	4.161679	-4.223943	0.520080	6.575614	0.114766	19.745003	4.921099	0.000000	4.264562	1.275953	-14.544820	9.674983	0.168860	20.804960	14.755112	0.000000	-0.126794	-0.184327	1.872832	-0.235469	-0.245155	1.989884	-0.208310	-0.448172	1.989884	-0.144913	-0.448172	1.638728	-0.117741	-0.375879	1.521676	-0.072450	-0.285522	1.404624	-0.905676	-2.085141	10.416130	0.000000	0.000000	24.755627	-5.369612	-0.256110	3.432257	-9.359782	37.994451	47.487967	66.929432	2.950006	14.193964	19.906768	-7.743596	78.957271	36.057131	57.680668	6.549303	-13.715780
8.283333	-3.648362	-0.550227	90.176176	0.256203	0.688904	0.746434	4.167545	-4.228577	0.398987	6.494311	0.113347	19.747859	5.071572	0.000000	4.338366	1.252019	-14.692884	9.778096	0.170660	20.746800	14.908301	0.000000	-0.124233	-0.195043	1.912355	-0.230713	-0.259407	2.031878	-0.204103	-0.474227	2.031878	-0.141986	-0.474227	1.673311	-0.115363	-0.397731	1.553789	-0.070987	-0.302121	1.434267	-0.887384	-2.206362	10.635947	0.000000	0.000000	24.742699	-5.438793	-0.297331	3.379331	-9.366924	37.834623	47.594567	67.374109	3.024583	13.951249	20.041909	-7.713041	79.341980	36.022012	57.465744	6.555302	-13.663512
8.300000	-3.643569	-0.617983	90.158406	0.256393	0.688757	0.746432	4.241643	-4.209329	0.327172	6.478138	0.113065	19.725901	5.147194	0.000000	4.444992	1.212010	-14.842789	9.869501	0.172255	20.718836	14.992517	0.000000	-0.117158	-0.202723	1.954743	-0.217574	-0.269621	2.076915	-0.192478	-0.492900	2.076915	-0.133900	-0.492900	1.710401	-0.108793	-0.413392	1.588229	-0.066944	-0.314017	1.466058	-0.836846	-2.293239	10.871697	0.000000	0.000000	24.745313	-5.496135	-0.285035	3.259627	-9.353643	37.516947	47.714496	68.161742	3.079584	13.752797	20.195008	-7.662391	79.725424	35.975698	57.324204	6.567534	-13.641130
8.316667	-3.624396	-0.673455	90.125977	0.256564	0.688624	0.746440	4.304506	-4.169207	0.340315	6.468315	0.112893	19.642944	5.081322	0.000000	4.522924	1.162155	-15.031343	9.922901	0.173187	20.714833	15.111561	0.000000	-0.111443	-0.208224	2.000902	-0.206960	-0.276938	2.125959	-0.183089	-0.506275	2.125959	-0.127368	-0.506275	1.750790	-0.103486	-0.424610	1.625733	-0.063678	-0.322539	1.500677	-0.796024	-2.355469	11.128419	0.000000	0.000000	24.702465	-5.601668	-0.306392	3.066416	-9.289880	36.960346	47.813915	69.367291	3.197015	13.583973	20.366614	-7.588370	80.125394	35.912704	57.275796	6.541488	-13.657146
8.333333	-3.594991	-0.723191	90.080605	0.256705	0.688508	0.746443	4.363952	-4.119396	0.384733	6.468440	0.112896	19.524133	4.959736	0.000000	4.578449	1.115435	-15.160074	9.934309	0.173386	20.717003	15.128823	0.000000	-0.105459	-0.211826	2.047409	-0.195849	-0.281729	2.175373	-0.173259	-0.515034	2.175373	-0.120529	-0.515034	1.791483	-0.097930	-0.431956	1.663520	-0.060259	-0.328119	1.535557	-0.753286	-2.396220	11.387077	0.000000	0.000000	24.604425	-5.744820	-0.332658	2.814411	-9.182113	36.232250	47.900382	70.779194	3.314549	13.502907	20.518238	-7.501066	80.468627	35.841806	57.324440	6.471217	-13.708877
8.350000	-3.555881	-0.755855	90.035246	0.256820	0.688421	0.746449	4.405739	-4.059340	0.452836	6.475115	0.113012	19.391023	4.784246	0.000000	4.606617	1.070333	-15.227409	9.917405	0.173091	20.733141	15.061535	0.000000	-0.101322	-0.214196	2.093485	-0.188165	-0.284880	2.224328	-0.166462	-0.520795	2.224328	-0.115801	-0.520795	1.831799	-0.094088	-0.436788	1.700956	-0.057895	-0.331789	1.570114	-0.723733	-2.423023	11.643334	0.000000	0.000000	24.456179	-5.933269	-0.418939	2.524767	-9.039720	35.396402	47.963629	72.181818	3.429808	13.465384	20.660239	-7.401216	80.780998	35.766155	57.422749	6.370915	-13.716532
